<?xml version="1.0" encoding="UTF-8"?><svg id="Capa_2" xmlns="http://www.w3.org/2000/svg" viewBox="0 0 378.89 204.93"><defs><style>.cls-1{fill:#fff;}</style></defs><g id="Capa_1-2"><g><g><g><path class="cls-1" d="M143.22,31.94c4.57-1.92,9.93-3.29,16.58-4.23,.33-.05,.65-.09,.98-.14,3.87-.54,7.87-1.1,11.12-3.28,3.28-2.2,5.29-5.7,7.24-9.08,.91-1.57,1.84-3.2,2.89-4.68,3.54-4.97,8.74-8.48,14.28-9.64,1.35-.28,2.72-.42,4.08-.42,4.6,0,9.11,1.57,12.42,4.43,5.43,4.7,7.33,12.25,8.29,17.52,.3,1.62,.55,3.28,.8,4.89,.17,1.11,.34,2.23,.53,3.34h.47c-.19-1.14-.37-2.28-.54-3.41-.25-1.61-.5-3.28-.8-4.91-.97-5.34-2.91-12.99-8.45-17.79-4.39-3.8-10.87-5.38-16.9-4.11-5.64,1.18-10.95,4.77-14.56,9.83-1.06,1.49-2.01,3.13-2.92,4.72-1.92,3.34-3.9,6.79-7.09,8.93-3.17,2.12-7.11,2.67-10.93,3.2-.33,.05-.66,.09-.98,.14-6.75,.96-12.2,2.35-16.83,4.32l.31,.37Z"/><path class="cls-1" d="M220.46,107.05c-.28,.06-.55,.12-.83,.18-.47,.1-.94,.2-1.4,.31-4.87,1.13-9.68,2.94-14.34,4.69-7.91,2.98-16.1,6.06-24.59,5.74-2.12-.08-4.26-.37-6.34-.66-2.88-.4-5.85-.8-8.81-.65-2.89,.15-5.75,.84-8.52,1.51-2.41,.58-4.9,1.19-7.4,1.43-5.24,.5-15.05-2.74-18.68-5.12-5.64-3.84-10.91-8.21-11.27-14.19-.2-3.27,1.17-6.39,2.49-9.41,.56-1.28,1.13-2.6,1.59-3.92,2.09-6.04,1.81-12.62,1.54-18.98-.28-6.67-.57-13.58,1.91-19.77,1.36-3.39,3.56-6.54,6.44-9.28v-.64c-3.09,2.86-5.44,6.17-6.88,9.75-2.51,6.28-2.22,13.24-1.94,19.96,.27,6.32,.54,12.85-1.52,18.81-.45,1.3-1.02,2.61-1.58,3.88-1.34,3.07-2.73,6.25-2.53,9.62,.37,6.18,5.74,10.65,11.48,14.55,3.4,2.23,12.09,5.25,17.73,5.25,.44,0,.86-.02,1.25-.06,2.53-.24,5.04-.85,7.46-1.44,2.75-.67,5.58-1.35,8.43-1.5,2.91-.15,5.86,.25,8.72,.65,2.09,.29,4.24,.58,6.38,.66,8.59,.32,16.82-2.77,24.78-5.77,4.64-1.75,9.44-3.55,14.28-4.68,.46-.11,.93-.21,1.4-.31,.24-.05,.49-.11,.73-.16v-.48Z"/><path class="cls-1" d="M240.59,83.39c-.52-4.14-3.01-7.62-5.43-10.98-1.45-2.02-2.94-4.1-4.01-6.33v1.03c1.04,1.95,2.35,3.78,3.64,5.57,2.49,3.47,4.84,6.74,5.34,10.76,.67,5.31-2.07,10.93-8.37,17.16-.2,.2-.41,.4-.61,.6v.65c.32-.3,.63-.61,.94-.91,6.41-6.34,9.19-12.08,8.5-17.55Z"/></g><g><path class="cls-1" d="M162.03,30.58c.73-.23,1.47-.46,2.23-.69,.47-.14,.94-.28,1.41-.41,3.97-1.16,8.08-2.37,11.34-4.96,2.32-1.85,4.08-4.31,5.79-6.68,1.85-2.58,3.76-5.24,6.36-7.07,2.37-1.67,5.34-2.68,8.84-3.02,8.43-.82,16.6,3.17,19.85,9.7,1.78,3.57,2.11,7.67,2.44,11.64,.07,.9,.15,1.8,.24,2.71l.42-.5c-.07-.75-.13-1.51-.19-2.25-.33-4.01-.67-8.16-2.49-11.81-3.34-6.7-11.69-10.8-20.31-9.96-3.58,.35-6.63,1.39-9.07,3.11-2.66,1.88-4.6,4.57-6.47,7.18-1.69,2.35-3.43,4.79-5.7,6.59-3.19,2.54-7.25,3.73-11.18,4.88-.47,.14-.94,.28-1.41,.42-1.24,.37-2.43,.75-3.59,1.14h1.49Z"/><path class="cls-1" d="M147.06,36.56l.3,.36s.03-.02,.04-.02v-.54c-.11,.07-.23,.13-.34,.2Z"/><path class="cls-1" d="M220.46,104.59c-.18,.07-.36,.15-.54,.22-6.73,2.7-13.62,5.31-20.45,7.75-5.59,2-11.06,3.8-16.65,3.96-2.46,.07-4.96-.18-7.38-.43-2.7-.27-5.48-.55-8.24-.39-2.63,.15-5.25,.71-7.79,1.25-2.13,.45-4.32,.92-6.51,1.14-5.44,.55-11.04-.47-16.2-2.96-5.09-2.45-9.42-6.16-12.54-10.73-1.64-2.41-1.68-5.1-1.22-8.41l3.37-24.46c.73-5.32,1.49-10.81,3.59-15.85,.65-1.57,1.44-3.1,2.36-4.59v-.87c-1.1,1.7-2.04,3.47-2.79,5.28-2.12,5.09-2.89,10.62-3.62,15.97l-3.37,24.46c-.47,3.41-.43,6.2,1.3,8.74,3.16,4.63,7.55,8.4,12.72,10.89,4.31,2.08,8.93,3.15,13.51,3.15,.98,0,1.97-.05,2.94-.15,2.21-.23,4.42-.69,6.56-1.15,2.52-.53,5.12-1.09,7.72-1.24,2.72-.16,5.49,.12,8.17,.39,2.43,.24,4.95,.5,7.44,.43,5.66-.16,11.17-1.98,16.8-3.98,6.84-2.44,13.73-5.06,20.47-7.76,.12-.05,.24-.1,.37-.15v-.5Z"/><path class="cls-1" d="M233.54,74.78c-.62-1.44-1.34-2.85-2.05-4.22-.11-.22-.23-.44-.34-.66v1.02c.68,1.32,1.37,2.67,1.96,4.05,1.75,4.07,2.5,8.62,2.1,12.81-.38,4.02-1.78,7.51-4.06,10.19v.7c2.56-2.8,4.12-6.53,4.52-10.85,.4-4.27-.36-8.9-2.14-13.04Z"/></g><g><path class="cls-1" d="M169.86,30.58c3.81-1.32,7.48-2.97,10.4-5.74,1.13-1.06,2.12-2.28,3.09-3.45,.69-.84,1.4-1.71,2.15-2.51,3.1-3.31,7.05-5.71,11.42-6.94,3.15-.89,6.05-1.01,8.61-.36,5.23,1.32,9.71,6.22,11.99,13.09,.9,2.72,1.46,5.58,1.95,8.4l.39-.47c-.47-2.71-1.03-5.45-1.9-8.07-2.32-7.03-6.93-12.04-12.32-13.4-2.64-.67-5.61-.54-8.85,.37-4.45,1.25-8.47,3.7-11.63,7.07-.76,.81-1.48,1.69-2.17,2.53-.95,1.16-1.94,2.37-3.04,3.41-3.2,3.02-7.32,4.7-11.55,6.08h1.47Z"/><path class="cls-1" d="M231.15,78.48c.57,1.87,1.06,3.77,1.34,5.7,.61,4.09,.12,7.86-1.34,10.81v.98c1.82-3.14,2.48-7.31,1.8-11.86-.36-2.45-1.05-4.85-1.8-7.19v1.56Z"/><path class="cls-1" d="M132.26,110.39c-1.03-.81-2.07-1.72-3.13-2.71-3.47-3.23-3.71-6.43-3.68-10.93,.03-3.82,.61-7.66,1.17-11.36l2.5-16.46c.54-3.57,1.1-7.26,2.37-10.71,.23-.62,.49-1.24,.77-1.86v-1.08c-.46,.92-.86,1.84-1.2,2.78-1.28,3.49-1.85,7.2-2.39,10.8l-2.5,16.46c-.57,3.72-1.15,7.57-1.18,11.43-.03,4.63,.22,7.92,3.82,11.28,1.17,1.09,2.32,2.08,3.45,2.96v-.59Z"/><path class="cls-1" d="M220.46,103.03l-7.77,3.53c-8.1,3.68-17.29,7.86-26.8,8.44-3.42,.21-6.91-.04-10.28-.28-3.5-.25-7.12-.51-10.67-.25-2.45,.17-4.93,.59-7.33,.99-4.54,.76-9.23,1.55-13.77,.68-3.18-.61-6.29-1.98-9.54-4.24h-.81c3.5,2.53,6.84,4.05,10.26,4.7,1.45,.28,2.91,.39,4.37,.39,3.21,0,6.42-.54,9.57-1.07,2.39-.4,4.86-.82,7.29-.99,3.53-.25,7.13,0,10.61,.25,3.39,.24,6.89,.49,10.34,.28,9.6-.59,18.82-4.79,26.96-8.48l7.58-3.44v-.51Z"/></g><g><path class="cls-1" d="M231.15,84.82v5.45c.35-1.81,.27-3.65,0-5.45Z"/><path class="cls-1" d="M175.06,30.58c.87-.35,1.73-.76,2.55-1.25,2.32-1.38,4.21-3.36,6.05-5.28,1.43-1.5,2.91-3.05,4.58-4.29,2.89-2.16,6.63-3.34,10.46-3.34,.64,0,1.28,.03,1.92,.1,4.55,.47,8.61,2.6,11.13,5.85,1.79,2.3,2.88,5.06,3.86,7.69,.66,1.78,1.28,3.58,1.89,5.38l.35-.42c-.57-1.72-1.17-3.43-1.8-5.12-.99-2.66-2.1-5.46-3.93-7.82-2.6-3.35-6.77-5.55-11.45-6.03-4.61-.47-9.24,.74-12.71,3.33-1.7,1.27-3.19,2.83-4.64,4.34-1.81,1.89-3.68,3.85-5.95,5.2-1.15,.68-2.38,1.2-3.63,1.65h1.31Z"/><path class="cls-1" d="M132.26,107.5c-.94-1.05-1.74-2.19-2.38-3.39-3.1-5.84-2.54-12.68-1.48-19.2,.93-5.71,1.92-11.8,2.82-17.96,.24-1.62,.55-3.5,1.03-5.46v-1.79c-.76,2.57-1.19,5.09-1.5,7.18-.9,6.15-1.88,12.24-2.82,17.95-1.08,6.6-1.64,13.53,1.52,19.49,.73,1.38,1.68,2.68,2.79,3.87v-.69Z"/><path class="cls-1" d="M220.46,101.42c-1.52,.8-3.1,1.53-4.64,2.21l-11.55,5.11c-4.33,1.92-8.82,3.9-13.58,4.61-3.69,.55-7.49,.32-11.17,.1-2.6-.16-5.29-.32-7.93-.21-2.81,.12-5.62,.55-8.35,.96-1.51,.23-3.08,.47-4.62,.65-6.34,.75-11.65,.42-16.22-1.01-1.62-.5-3.15-1.16-4.57-1.95h-.93c1.64,.98,3.44,1.79,5.36,2.39,3.04,.95,6.38,1.42,10.14,1.42,1.98,0,4.06-.13,6.27-.39,1.55-.18,3.12-.42,4.64-.65,2.71-.41,5.52-.84,8.3-.96,2.62-.11,5.29,.05,7.88,.21,3.7,.22,7.53,.45,11.27-.11,4.83-.72,9.34-2.72,13.7-4.65l11.55-5.11c1.48-.65,2.98-1.35,4.45-2.11v-.53Z"/></g><g><polygon class="cls-1" points="219.72 49.08 220.46 52.14 220.46 50.14 220.09 48.63 219.72 49.08"/><path class="cls-1" d="M143.87,49.41c-.36,.45-.7,.91-1.03,1.38v.81c.42-.62,.87-1.22,1.34-1.82l-.31-.37Z"/><path class="cls-1" d="M178.93,30.58c1.36-.51,2.71-1.05,4.03-1.62,.87-.37,1.76-.77,2.62-1.15,4.74-2.11,9.61-4.28,14.47-4.28,1.3,0,2.59,.15,3.88,.5,4.18,1.13,8.07,4.49,10.67,9.2,.65,1.18,1.2,2.4,1.69,3.65l.34-.41c-.47-1.18-1.01-2.34-1.63-3.46-2.69-4.9-6.58-8.25-10.95-9.43-6.3-1.71-12.59,1.09-18.66,3.8-.86,.38-1.75,.78-2.62,1.15-1.69,.73-3.43,1.4-5.18,2.05h1.33Z"/><path class="cls-1" d="M132.26,101.39c-.43-.98-.79-2.01-1.1-3.07-1.46-5.12-1.55-11.07-.28-18.19,.39-2.16,.84-4.12,1.37-5.92v-1.56c-.74,2.2-1.34,4.64-1.83,7.4-1.28,7.18-1.19,13.2,.29,18.4,.4,1.42,.92,2.78,1.54,4.06v-1.12Z"/><path class="cls-1" d="M220.46,98.79c-2.2,1.8-4.93,2.9-7.59,3.96-.62,.25-1.26,.5-1.88,.76-2.06,.86-4.1,1.86-6.08,2.82-3.72,1.81-7.57,3.69-11.63,4.72-5.29,1.35-10.89,1.25-16.29,1.16-3.21-.05-6.53-.11-9.78,.13-2.06,.15-4.18,.43-6.23,.7-6.37,.83-12.96,1.68-18.75-.93-.15-.07-.29-.13-.43-.21h-1c.41,.23,.82,.44,1.25,.63,3,1.36,6.19,1.8,9.45,1.8,3.16,0,6.38-.42,9.55-.83,2.04-.27,4.16-.54,6.2-.69,3.22-.24,6.53-.19,9.74-.13,5.44,.09,11.06,.19,16.42-1.18,4.11-1.05,7.98-2.93,11.72-4.76,1.97-.96,4.01-1.95,6.06-2.81,.62-.26,1.26-.51,1.87-.76,2.57-1.03,5.22-2.09,7.41-3.8v-.6Z"/></g><g><path class="cls-1" d="M166.16,39.91h-1.22c-2.74,1.16-5.39,2.48-7.87,4.09v.56c2.84-1.87,5.92-3.36,9.09-4.65Z"/><path class="cls-1" d="M147.4,107.71c-1.64-.64-3.17-1.4-4.56-2.26v.54c1.4,.85,2.93,1.59,4.56,2.22v-.5Z"/><path class="cls-1" d="M145.21,56.42c.71-.92,1.43-1.84,2.19-2.76l-.3-.36c-.78,.95-1.53,1.9-2.25,2.84-.64,.83-1.33,1.75-2,2.72v.83c.79-1.17,1.61-2.27,2.37-3.26Z"/><path class="cls-1" d="M220.46,58.42c-.06-.46-.12-.93-.19-1.39-.34-2.32-.82-4.62-1.44-6.88l-.36,.44c.58,2.14,1.03,4.31,1.35,6.51,.03,.19,.05,.38,.08,.56,.2,.59,.39,1.18,.57,1.78v-1.02Z"/><path class="cls-1" d="M220.46,91.41c-1.77,2.95-4.26,5.68-7.36,8.01-2.28,1.71-4.76,3.14-7.34,4.37-.74,.54-1.5,1.05-2.28,1.54,3.49-1.49,6.87-3.27,9.91-5.54,2.92-2.2,5.31-4.75,7.08-7.51v-.88Z"/><path class="cls-1" d="M189.24,31.45c3.3-1.21,6.64-2.16,9.94-2.16,1.49,0,2.98,.2,4.45,.65,4.81,1.49,8.19,5.52,10.48,9.58l.32-.38c-2.33-4.09-5.77-8.12-10.66-9.64-5.1-1.58-10.31-.14-15.42,1.79,.3,.05,.59,.11,.89,.17Z"/></g><g><path class="cls-1" d="M147.4,59.13v-.74c-.21,.26-.42,.52-.63,.79-1.59,2.04-2.91,4.2-3.93,6.41v1.15c1.06-2.51,2.51-4.97,4.3-7.28,.09-.11,.17-.22,.26-.33Z"/><path class="cls-1" d="M157.55,49.2l.3,.36c.82-.58,1.68-1.17,2.58-1.75,4.9-3.2,10-5.84,15.18-7.9h-1.24c-4.84,2.01-9.6,4.52-14.19,7.51-.91,.6-1.79,1.19-2.63,1.78Z"/><path class="cls-1" d="M147.4,103.39c-1.7-1.2-3.24-2.68-4.56-4.39v.75c1.33,1.63,2.88,3.05,4.56,4.2v-.56Z"/><path class="cls-1" d="M199.41,34.81c1.28,.07,2.53,.29,3.68,.82,1.47,.68,2.71,1.84,3.73,2.88,1.1,1.12,2.13,2.31,3.09,3.55,.06,.06,.12,.11,.18,.17,.3,.3,.62,.61,.95,.96l.16-.19c-1.23-1.71-2.58-3.32-4.05-4.82-1.05-1.07-2.33-2.27-3.87-2.98-1.54-.71-3.23-.9-4.93-.89,.35,.16,.71,.32,1.06,.49Z"/></g><g><path class="cls-1" d="M147.4,97.43c-1.19-1.26-2.13-2.67-2.78-4.19-1.62-3.78-1.21-7.66-.58-10.25,.34-1.41,.87-2.87,1.66-4.59,.43-.95,.56-1.77,.7-2.64,.05-.3,.1-.6,.16-.92,.2-1.02,.47-2.09,.84-3.24v-1.46c-.6,1.67-1.02,3.18-1.29,4.61-.06,.33-.11,.64-.16,.94-.14,.87-.26,1.63-.67,2.52-.8,1.75-1.34,3.23-1.69,4.67-.65,2.66-1.07,6.65,.6,10.54,.73,1.71,1.82,3.28,3.21,4.68v-.67Z"/><path class="cls-1" d="M178.33,43.95c-.59,.1-1.2,.16-1.78,.22-.87,.09-1.76,.18-2.63,.4-1.94,.49-3.65,1.56-5.31,2.61-.38,.24-.78,.49-1.16,.72-.96,.58-1.97,1.13-2.95,1.67-1.48,.81-3.01,1.65-4.43,2.62,0,0-.02,.01-.02,.02l.3,.36c1.4-.95,2.91-1.78,4.37-2.58,.98-.54,1.99-1.09,2.96-1.68,.39-.24,.79-.49,1.17-.73,1.63-1.02,3.31-2.08,5.18-2.55,.84-.21,1.72-.3,2.57-.39,.6-.06,1.21-.13,1.82-.23,2.62-.45,5.12-1.66,7.54-2.84,.58-.28,1.16-.57,1.74-.83-.25-.06-.5-.11-.75-.16-.4,.19-.79,.38-1.19,.57-2.39,1.16-4.85,2.36-7.41,2.8Z"/></g><g><path class="cls-1" d="M164.77,102.03c-.19,0-.37,0-.56,0-.7,0-1.43,0-2.13-.06-1.36-.13-2.23-1.01-3.07-1.87-.62-.62-1.21-1.22-1.94-1.45v.33c.62,.24,1.16,.77,1.72,1.34,.84,.85,1.8,1.81,3.26,1.96,.72,.07,1.46,.06,2.17,.06,.84,0,1.71-.01,2.56,.11,.37,.05,.74,.13,1.1,.23h1.1c-.71-.23-1.43-.43-2.16-.54-.68-.1-1.37-.12-2.05-.12Z"/><path class="cls-1" d="M207.15,87.89c-.91,.22-1.85,.44-2.48,1.16-.6,.67-.73,1.57-.86,2.44-.08,.54-.16,1.11-.36,1.6-.08,.21-.19,.41-.3,.59,.23-.22,.45-.45,.66-.67,.16-.48,.24-.99,.31-1.48,.13-.86,.25-1.67,.78-2.28,.57-.64,1.42-.84,2.32-1.06,.14-.03,.28-.07,.42-.1,.08-.13,.16-.26,.24-.39-.24,.07-.49,.13-.73,.19Z"/><path class="cls-1" d="M187.37,101.64c-.55-.05-1.12-.1-1.69-.11-1.98,0-3.91,.58-5.78,1.16h.52c.19,0,.38,0,.56,0,1.52-.45,3.07-.84,4.63-.84,.02,0,.04,0,.06,0,.55,0,1.11,.06,1.66,.11,.05,0,.1,0,.15,.01,.34-.07,.69-.15,1.03-.23-.39-.02-.77-.06-1.15-.09Z"/><path class="cls-1" d="M147.4,92.93c-.1-.13-.21-.25-.3-.39-2.02-2.84-1.34-6.72-.31-10.49,.2-.73,.41-1.46,.61-2.19v-1.14c-.31,1.08-.62,2.17-.91,3.25-1.05,3.84-1.74,7.8,.36,10.75,.17,.24,.36,.47,.55,.68v-.48Z"/><path class="cls-1" d="M204.62,50.96c-.36-.48-.7-.97-1.03-1.47-.2-.21-.41-.41-.61-.61-.12-.11-.24-.22-.35-.33,.56,.92,1.16,1.81,1.8,2.66l.2-.25Z"/><path class="cls-1" d="M161.82,54.35l.2,.24c9.68-6.01,20.77-9.78,32.11-10.89,.48-.05,.98-.09,1.49-.1-.19-.1-.38-.19-.57-.29-.32,.02-.64,.05-.95,.08-11.41,1.12-22.55,4.9-32.28,10.96Z"/><path class="cls-1" d="M212.18,74.56c.06-.63,.1-1.27,.13-1.92l-.86-8.88c-.14-.6-.31-1.2-.48-1.78l1.22,12.58Z"/></g><g><path class="cls-1" d="M209.2,63.13c-.02,.2-.03,.4-.05,.59-.15,2.12,.09,4.26,.31,6.34,.17,1.56,.35,3.17,.36,4.75,.05,6.18-2.42,12.23-6.78,16.62-2.36,2.37-5.22,4.23-7.98,6.02-1.75,1.13-3.56,2.31-5.6,2.85-1.63,.44-3.36,.45-5.03,.47l-11.8,.1c-2.78,.02-5.66,.05-8.43-.52-2.54-.52-4.98-1.57-7.14-3.04v.56c2.15,1.41,4.55,2.42,7.05,2.93,2.24,.46,4.54,.54,6.8,.54,.58,0,1.15,0,1.72-.01l11.8-.1c1.7-.01,3.46-.03,5.15-.48,2.11-.56,3.95-1.76,5.74-2.91,2.78-1.81,5.66-3.67,8.06-6.08,4.44-4.47,6.96-10.65,6.91-16.95-.01-1.61-.19-3.23-.36-4.8-.22-2.05-.46-4.17-.31-6.25,.01-.19,.03-.39,.05-.59,.06-.68,.11-1.37,.06-2.05l-.44,.54c0,.49-.04,.98-.08,1.47Z"/><path class="cls-1" d="M196.65,48.24c-3.83-1.98-8.34-1.23-13-.21-6.09,1.33-10.81,2.93-14.85,5.02-1.94,1.01-3.7,2.12-5.28,3.34l.3,.36c1.56-1.2,3.28-2.3,5.2-3.29,4.01-2.08,8.69-3.66,14.74-4.98,4.58-1,9-1.74,12.69,.16,1.44,.74,2.67,1.86,3.86,2.94l2.16,1.96,.3-.36-2.15-1.95c-1.21-1.1-2.46-2.23-3.96-3.01Z"/></g><g><path class="cls-1" d="M186.81,49.8c-1.21-.04-2.34,.44-3.43,.91-.19,.08-.39,.16-.58,.24-1.81,.74-3.75,1.24-5.63,1.72-2.43,.62-4.94,1.27-7.21,2.45-1.73,.9-3.27,2.09-4.68,3.42l.2,.24c1.39-1.32,2.92-2.49,4.62-3.38,2.23-1.16,4.73-1.8,7.14-2.42,1.89-.48,3.84-.98,5.67-1.73,.19-.08,.39-.16,.58-.24,1.06-.45,2.17-.92,3.3-.88,.86,.03,1.67,.32,2.56,.68,4.15,1.67,7.71,3.48,10.82,5.51l.2-.24c-3.14-2.05-6.72-3.88-10.91-5.56-.88-.36-1.75-.68-2.66-.7Z"/><path class="cls-1" d="M205.7,67.84c.51,1.01,.99,1.96,1.19,3.1,.85,4.91,0,10.55-2.18,14.36-.21,.36-.46,.77-.81,1.04-.28,.21-.61,.34-.97,.48-.17,.06-.34,.13-.51,.21-1.79,.82-2.69,2.68-3.57,4.47-.84,1.72-1.7,3.51-3.35,4.31-.61,.3-1.31,.44-1.98,.58-.72,.15-1.47,.3-2.14,.64-.56,.29-1.05,.7-1.51,1.1-.43,.36-.86,.74-1.35,1.01-.86,.47-1.88,.63-2.84,.75-3.72,.47-7.5,.57-11.24,.3-2.68-.19-5.77-.61-8.3-2.23-.19-.12-.39-.26-.58-.39-.57-.39-1.16-.8-1.83-1.01-.28-.09-.6-.14-.91-.14-.57,0-1.14,.17-1.55,.57-.18-.61-.6-1.16-1.18-1.55-.65-.43-1.41-.59-2.1-.46-.35-.52-.66-1.07-.92-1.64v.7c.22,.41,.46,.81,.72,1.2l.06,.09,.1-.03c.64-.16,1.36-.01,1.96,.39,.61,.4,1.02,1.01,1.12,1.66l.06,.4,.22-.33c.47-.71,1.52-.82,2.31-.57,.63,.2,1.2,.6,1.75,.97,.19,.13,.39,.27,.59,.4,2.59,1.66,5.72,2.08,8.44,2.28,1.37,.1,2.74,.15,4.12,.15,2.4,0,4.8-.15,7.18-.45,1-.13,2.05-.29,2.96-.79,.52-.29,.97-.67,1.4-1.04,.45-.39,.92-.79,1.45-1.06,.63-.33,1.36-.47,2.06-.61,.69-.14,1.41-.28,2.06-.6,1.75-.85,2.63-2.68,3.49-4.45,.89-1.83,1.72-3.55,3.41-4.32,.16-.07,.33-.14,.49-.2,.36-.14,.73-.28,1.04-.52,.4-.31,.67-.75,.89-1.14,2.2-3.87,3.07-9.58,2.21-14.56-.2-1.18-.72-2.2-1.22-3.19-.22-.43-.43-.86-.63-1.31l-.22,.27c.18,.4,.38,.79,.57,1.18Z"/><path class="cls-1" d="M158.56,67.05l-.21-.25c-.49,.72-.95,1.48-1.29,2.3v.94c.31-1.07,.87-2.07,1.49-2.99Z"/></g><g><path class="cls-1" d="M204.17,79.86c-1.36,5.24-5.86,8.96-10.75,12.61-1.38,1.03-2.8,2.09-4.35,2.89-3.3,1.71-8.56,3.29-20.06,.37-2.85-.72-5.81-1.6-7.97-3.63-2.43-2.28-3.67-5.94-3.4-10.03,.24-3.62,1.54-7.09,2.97-10.62h0c.13-.41,.29-.86,.48-1.36l-.34-.41c-.24,.6-.43,1.14-.58,1.6-1.44,3.57-2.76,7.07-3,10.76-.28,4.23,1.01,8.02,3.55,10.4,2.25,2.11,5.27,3,8.18,3.74,3.35,.85,7.21,1.64,11.07,1.64,3.2,0,6.41-.54,9.32-2.05,1.58-.82,3.02-1.89,4.41-2.94,4.96-3.71,9.52-7.48,10.92-12.87,1.03-3.94,.13-8.07-.86-11.68l-.36,.44c.94,3.47,1.74,7.41,.77,11.12Z"/><path class="cls-1" d="M195.04,57.16c-.56-.34-1.11-.72-1.65-1.09-.98-.68-2-1.38-3.13-1.86-4.25-1.79-8.99-.11-13.49,1.77-.77,.32-1.56,.63-2.33,.93-2.57,.99-5.21,2.02-7.42,3.71l.3,.36c2.16-1.65,4.76-2.66,7.29-3.64,.77-.3,1.57-.61,2.34-.93,3.1-1.29,6.31-2.49,9.37-2.49,1.29,0,2.55,.21,3.76,.72,1.08,.46,2.08,1.14,3.04,1.81,.54,.37,1.1,.76,1.67,1.11,.49,.3,1,.57,1.5,.83,.49,.26,.99,.53,1.47,.82l.3-.36c-.51-.31-1.04-.59-1.55-.87-.49-.26-1-.53-1.48-.82Z"/></g><g><path class="cls-1" d="M177.3,62.47c-2.38,.45-4.6,1.4-6.48,2.73l.3,.36c1.82-1.28,3.97-2.19,6.27-2.63,1.11-.21,2.38-.32,3.72-.32,3.6,0,7.73,.8,10.71,2.67,.2,.13,.4,.27,.59,.42l.3-.36c-.21-.16-.42-.31-.64-.45-3.75-2.35-9.82-3.34-14.76-2.41Z"/><path class="cls-1" d="M165.23,85.14c.66,2.79,1.85,4.76,3.54,5.84,1.64,1.05,3.68,1.21,5.62,1.29,.84,.03,1.71,.05,2.59,.05s1.7-.02,2.56-.07l-.38-.46c-1.4,.07-2.96,.08-4.75,.01-1.88-.07-3.84-.22-5.39-1.21-1.58-1.01-2.7-2.88-3.33-5.55-.4-1.7-.61-3.57-.65-5.7-.03-1.56,.05-2.95,.24-4.21l-.4-.48c-.24,1.4-.34,2.95-.31,4.7,.04,2.17,.25,4.07,.66,5.8Z"/><path class="cls-1" d="M196.65,76.86c-.01,.39-.04,.78-.09,1.15-.55,4.55-3.35,8.83-7.3,11.17-1.1,.65-2.44,1.3-4.33,1.79l-.49,.59c1.77-.42,3.48-1.05,5.06-1.98,4.07-2.41,6.96-6.82,7.53-11.51,.07-.57,.1-1.17,.1-1.79l-.48,.58Z"/></g><g><path class="cls-1" d="M172.78,86.2c.85,.6,1.79,.99,2.74,1.23l-.54-.65c-.67-.22-1.33-.54-1.93-.97-1.41-1-2.57-2.78-2.98-4.93l-.55-.66c.05,.45,.12,.9,.23,1.34,.49,1.97,1.53,3.57,3.02,4.63Z"/><path class="cls-1" d="M184.61,67.99c-3.78-.97-7.34-.31-10.09,1.67l.3,.36c2.64-1.88,6.05-2.51,9.67-1.58,1.54,.39,2.76,.95,3.73,1.7,.1,.08,.19,.15,.29,.24l.3-.36c-.1-.08-.2-.17-.3-.25-1.02-.79-2.29-1.37-3.9-1.78Z"/></g><path class="cls-1" d="M180.11,70.8c-1.18,.1-2.35,.77-3.34,1.57l.3,.36c.92-.74,2.01-1.38,3.08-1.47,.11,0,.22-.01,.34-.01,1.76,0,4.34,1.01,5.31,2.38l.31-.37c-1.21-1.57-4.15-2.62-5.99-2.47Z"/><path class="cls-1" d="M182.56,75.7c-.27-.16-.47-.44-.67-.73-.03-.05-.07-.1-.1-.15-.39-.54-.69-.78-1.01-.8-.37-.03-.65,.23-.99,.58-.15,.16-.22,.43-.29,.72-.02,.08-.04,.17-.07,.26l.35,.42c.08-.17,.12-.37,.17-.57,.04-.19,.11-.44,.17-.51,.29-.29,.47-.45,.62-.44,.16,.01,.38,.22,.67,.61,.03,.05,.07,.1,.1,.14,.22,.32,.46,.65,.81,.86,.24,.14,.5,.21,.75,.27,.13,.03,.25,.07,.37,.11l.31-.38c-.19-.08-.38-.13-.56-.18-.23-.06-.44-.12-.62-.22Z"/><path class="cls-1" d="M180.62,76.65h-.05c-.06,.03-.12,.05-.18,.08l.32,.38c.14,0,.5,.03,.71,.24,.13,.13,.19,.3,.18,.54,0,.08-.03,.15-.07,.22l.27,.33,.2-.24c.03-.09,.05-.19,.06-.29,.01-.37-.1-.67-.33-.89-.42-.41-1.1-.37-1.12-.37Z"/></g><g><polygon class="cls-1" points="147.27 40.65 140.98 33.17 134.77 33.17 134.77 109.39 140.32 109.39 140.32 41.22 147.27 49.47 147.27 40.65"/><polygon class="cls-1" points="222.65 33.17 181.81 82.39 157.08 52.68 157.08 61.45 181.49 90.66 181.92 90.66 222.97 41.22 222.97 109.39 228.64 109.39 228.64 33.17 222.65 33.17"/></g><g><path class="cls-1" d="M45.79,149.21v37.18h-2.76v-33.25l-20.03,24.12h-.21L2.71,153.14v33.25H0v-37.18H3.03l19.92,24.01,19.92-24.01h2.92Z"/><path class="cls-1" d="M145.49,167.8c0,11.37-8.61,18.59-22.04,18.59h-17.32v-37.18h17.32c13.44,0,22.04,7.22,22.04,18.59Zm-2.82,0c0-10.41-8.13-16.04-19.39-16.04h-14.4v32.03h14.4c11.26,0,19.39-5.58,19.39-15.99Z"/><path class="cls-1" d="M190.91,183.79v2.6h-35v-37.18h34.47v2.55h-31.71v14.39h27.2v2.6h-27.2v15.03h32.24Z"/><path class="cls-1" d="M236.64,186.4l-13.01-14.93h-19.92v14.93h-2.82v-37.18h24.38c8.29,0,13.81,4.14,13.81,11.1,0,6.53-4.78,10.57-12.06,11.1l13.23,14.98h-3.61Zm-11.53-17.48c6.85,0,11.15-3.03,11.15-8.61s-4.3-8.55-11.15-8.55h-21.46v17.16h21.46Z"/><path class="cls-1" d="M288.17,149.21v37.18h-2.44l-33.2-33.68v33.68h-2.71v-37.18h3.08l32.56,33.09v-33.09h2.71Z"/><path class="cls-1" d="M341.5,149.21l17.05,21.46,17-21.46h3.35l-19.02,24.01v13.17h-2.76v-13.17l-19.02-24.01h3.4Z"/><polygon class="cls-1" points="319.88 149.21 316.8 149.21 295.98 186.4 299.06 186.4 303.77 177.9 306.56 172.85 306.55 172.85 307.61 170.94 307.61 170.94 307.61 170.94 318.29 151.76 328.65 170.3 328.65 170.3 328.65 170.3 330.08 172.85 330.06 172.85 332.59 177.41 333.16 178.44 337.62 186.4 340.7 186.4 319.88 149.21"/><polygon class="cls-1" points="77.47 149.21 74.39 149.21 53.57 186.4 56.65 186.4 61.37 177.9 64.15 172.85 64.14 172.85 65.2 170.94 65.2 170.94 65.2 170.94 75.88 151.76 86.25 170.3 86.25 170.3 86.25 170.3 87.67 172.85 87.66 172.85 90.18 177.41 90.76 178.44 95.21 186.4 98.3 186.4 77.47 149.21"/></g><path class="cls-1" d="M212.12,58.23c1.68,4.07,2.56,8.51,2.56,13.12,0,9.26-3.53,17.81-9.95,24.06-6.36,6.2-15,9.62-24.31,9.62h-25.71V37.56h25.36c9.38,0,18.09,3.42,24.52,9.63,.59,.57,1.15,1.15,1.69,1.76l3.25-3.92c-.35-.37-.71-.74-1.08-1.1-7.3-7.09-17.3-10.99-28.15-10.99h-30.57V109.54h30.22c10.96,0,21.05-3.91,28.42-11,7.35-7.08,11.39-16.78,11.39-27.31,0-6.2-1.39-12.11-4.03-17.37l-3.62,4.37Z"/><g><path class="cls-1" d="M90.46,202.3h-6.23l-1.23,2.34h-1.8l5.26-9.71h1.83l5.24,9.71h-1.82l-1.25-2.34Zm-.74-1.42l-2.37-4.49-2.37,4.49h4.74Z"/><path class="cls-1" d="M104.78,201.77c0,1.85-1.82,3.16-5.12,3.16-2.27,0-4.29-.67-5.8-1.97l1.04-1.18c1.32,1.18,2.87,1.71,4.83,1.71,2.16,0,3.36-.57,3.36-1.58s-1.22-1.26-3.66-1.47c-2.68-.22-5.2-.82-5.2-2.8s2.23-3,5.02-3c2.11,0,3.9,.62,5.06,1.61l-1.05,1.14c-1-.87-2.37-1.29-3.98-1.3-1.54-.01-3.37,.36-3.37,1.44,0,1.03,1.62,1.21,3.74,1.37,3.02,.24,5.13,.85,5.13,2.87Z"/><path class="cls-1" d="M116.5,203.19v1.46h-9.67v-9.71h9.53v1.46h-7.88v2.59h6.63v1.46h-6.63v2.75h8.02Z"/><path class="cls-1" d="M127.45,204.64l-3.01-3.52h-4.09v3.52h-1.66v-9.71h6.6c2.26,0,3.93,1.08,3.93,3.09,0,1.68-1.17,2.7-2.86,3.01l3.15,3.61h-2.05Zm-2.27-4.95c1.39,0,2.33-.44,2.33-1.65s-.94-1.65-2.33-1.65h-4.84v3.3h4.84Z"/><path class="cls-1" d="M140.32,204.64l-3.01-3.52h-4.09v3.52h-1.66v-9.71h6.6c2.26,0,3.93,1.08,3.93,3.09,0,1.68-1.17,2.7-2.86,3.01l3.15,3.61h-2.05Zm-2.27-4.95c1.39,0,2.33-.44,2.33-1.65s-.94-1.65-2.33-1.65h-4.84v3.3h4.84Z"/><path class="cls-1" d="M152.26,202.3h-6.23l-1.23,2.34h-1.8l5.26-9.71h1.83l5.24,9.71h-1.82l-1.25-2.34Zm-.74-1.42l-2.37-4.49-2.37,4.49h4.74Z"/><path class="cls-1" d="M167.75,199.79c0,3-2.3,4.85-5.91,4.85h-4.92v-9.71h4.92c3.61,0,5.91,1.86,5.91,4.85Zm-1.71,0c0-2.25-1.78-3.4-4.33-3.4h-3.13v6.8h3.13c2.55,0,4.33-1.15,4.33-3.4Z"/><path class="cls-1" d="M179.68,203.19v1.46h-9.67v-9.71h9.53v1.46h-7.88v2.59h6.63v1.46h-6.63v2.75h8.02Z"/><path class="cls-1" d="M190.63,204.64l-3.01-3.52h-4.09v3.52h-1.66v-9.71h6.6c2.26,0,3.93,1.08,3.93,3.09,0,1.68-1.17,2.7-2.86,3.01l3.15,3.61h-2.05Zm-2.27-4.95c1.39,0,2.33-.44,2.33-1.65s-.94-1.65-2.33-1.65h-4.84v3.3h4.84Z"/><path class="cls-1" d="M193.97,199.79c0-3.2,2.3-5.15,6.03-5.15s6.03,1.94,6.03,5.15-2.3,5.15-6.03,5.15-6.03-1.94-6.03-5.15Zm10.36,0c0-2.36-1.69-3.68-4.33-3.68s-4.34,1.32-4.34,3.68,1.69,3.68,4.34,3.68,4.33-1.32,4.33-3.68Z"/><path class="cls-1" d="M223.12,194.93v9.71h-1.47l-7.59-7.66v7.66h-1.61v-9.71h1.78l7.27,7.37v-7.37h1.62Z"/><path class="cls-1" d="M233.97,202.3h-6.23l-1.23,2.34h-1.8l5.26-9.71h1.83l5.24,9.71h-1.82l-1.25-2.34Zm-.74-1.42l-2.37-4.49-2.37,4.49h4.74Z"/><path class="cls-1" d="M237.83,194.93l3.7,4.92,3.68-4.92h1.91l-4.77,6.35v3.36h-1.66v-3.36l-4.79-6.35h1.93Z"/><path class="cls-1" d="M255.25,202.3h-6.23l-1.23,2.34h-1.8l5.26-9.71h1.83l5.24,9.71h-1.82l-1.25-2.34Zm-.74-1.42l-2.37-4.49-2.37,4.49h4.74Z"/><path class="cls-1" d="M268.67,204.64l-3.01-3.52h-4.09v3.52h-1.66v-9.71h6.6c2.26,0,3.93,1.08,3.93,3.09,0,1.68-1.17,2.7-2.86,3.01l3.15,3.61h-2.05Zm-2.27-4.95c1.39,0,2.33-.44,2.33-1.65s-.94-1.65-2.33-1.65h-4.84v3.3h4.84Z"/><path class="cls-1" d="M272.78,204.64v-9.71h1.66v9.71h-1.66Z"/><path class="cls-1" d="M286.66,196.39h-4.42v8.25h-1.66v-8.25h-4.4v-1.46h10.49v1.46Z"/><path class="cls-1" d="M294.76,202.3h-6.23l-1.23,2.34h-1.8l5.26-9.71h1.83l5.24,9.71h-1.82l-1.25-2.34Zm-.74-1.42l-2.37-4.49-2.37,4.49h4.74Z"/></g></g></g></svg>