<?xml version="1.0" encoding="UTF-8"?><svg id="Capa_2" xmlns="http://www.w3.org/2000/svg" viewBox="0 0 488.26 71.8"><defs><style>.cls-1{fill:#fff;}</style></defs><g id="Capa_1-2"><g><g><path class="cls-1" d="M59,0V47.91h-3.56V5.07l-25.81,31.08h-.27L3.49,5.07V47.91H0V0H3.9L29.57,30.94,55.24,0h3.76Z"/><path class="cls-1" d="M187.49,23.96c0,14.65-11.09,23.96-28.41,23.96h-22.31V0h22.31c17.32,0,28.41,9.31,28.41,23.96Zm-3.63,0c0-13.42-10.47-20.67-24.98-20.67h-18.55V44.56h18.55c14.51,0,24.98-7.19,24.98-20.6Z"/><path class="cls-1" d="M246.01,44.56v3.35h-45.11V0h44.42V3.29h-40.86V21.84h35.05v3.35h-35.05v19.37h41.55Z"/><path class="cls-1" d="M304.95,47.91l-16.77-19.23h-25.67v19.23h-3.63V0h31.42c10.68,0,17.8,5.34,17.8,14.31,0,8.42-6.16,13.62-15.54,14.31l17.04,19.3h-4.65Zm-14.85-22.52c8.83,0,14.37-3.9,14.37-11.09s-5.54-11.02-14.37-11.02h-27.65V25.39h27.65Z"/><path class="cls-1" d="M371.35,0V47.91h-3.15L325.42,4.52V47.91h-3.49V0h3.97l41.96,42.64V0h3.49Z"/><path class="cls-1" d="M440.07,0l21.97,27.65L483.95,0h4.31l-24.51,30.94v16.98h-3.56V30.94L435.69,0h4.38Z"/><polygon class="cls-1" points="412.21 0 408.24 0 381.41 47.91 385.38 47.91 391.46 36.97 395.04 30.46 395.03 30.46 396.4 28 396.4 28 396.4 28 410.16 3.29 423.51 27.17 423.51 27.17 423.52 27.18 425.35 30.46 425.33 30.46 428.58 36.34 429.33 37.66 435.07 47.91 439.04 47.91 412.21 0"/><polygon class="cls-1" points="99.84 0 95.87 0 69.03 47.91 73 47.91 79.08 36.97 82.67 30.46 82.65 30.46 84.02 28 84.02 28 84.02 28 97.78 3.29 111.14 27.17 111.14 27.17 111.14 27.18 112.98 30.46 112.96 30.46 116.21 36.34 116.95 37.66 122.7 47.91 126.67 47.91 99.84 0"/></g><g><path class="cls-1" d="M116.57,68.41h-8.03l-1.59,3.02h-2.32l6.77-12.51h2.36l6.76,12.51h-2.34l-1.61-3.02Zm-.95-1.82l-3.06-5.79-3.06,5.79h6.11Z"/><path class="cls-1" d="M135.03,67.73c0,2.38-2.34,4.08-6.6,4.08-2.93,0-5.52-.86-7.47-2.54l1.34-1.52c1.7,1.52,3.7,2.2,6.22,2.2,2.79,0,4.33-.73,4.33-2.04s-1.57-1.63-4.72-1.89c-3.45-.29-6.7-1.05-6.7-3.61s2.88-3.86,6.47-3.86c2.72,0,5.02,.8,6.52,2.07l-1.36,1.47c-1.29-1.13-3.06-1.66-5.13-1.68-1.98-.02-4.34,.46-4.34,1.86,0,1.32,2.09,1.56,4.83,1.77,3.9,.3,6.61,1.09,6.61,3.7Z"/><path class="cls-1" d="M150.13,69.55v1.88h-12.46v-12.51h12.28v1.88h-10.15v3.34h8.54v1.88h-8.54v3.54h10.33Z"/><path class="cls-1" d="M164.23,71.43l-3.88-4.54h-5.27v4.54h-2.15v-12.51h8.51c2.91,0,5.06,1.39,5.06,3.99,0,2.16-1.5,3.49-3.68,3.88l4.06,4.65h-2.65Zm-2.93-6.38c1.79,0,3-.57,3-2.13s-1.22-2.13-3-2.13h-6.24v4.25h6.24Z"/><path class="cls-1" d="M180.82,71.43l-3.88-4.54h-5.27v4.54h-2.15v-12.51h8.51c2.91,0,5.06,1.39,5.06,3.99,0,2.16-1.5,3.49-3.68,3.88l4.06,4.65h-2.65Zm-2.93-6.38c1.79,0,3-.57,3-2.13s-1.22-2.13-3-2.13h-6.24v4.25h6.24Z"/><path class="cls-1" d="M196.21,68.41h-8.03l-1.59,3.02h-2.32l6.77-12.51h2.36l6.76,12.51h-2.34l-1.61-3.02Zm-.95-1.82l-3.06-5.79-3.06,5.79h6.11Z"/><path class="cls-1" d="M216.18,65.17c0,3.86-2.97,6.26-7.61,6.26h-6.35v-12.51h6.35c4.65,0,7.61,2.39,7.61,6.26Zm-2.2,0c0-2.9-2.29-4.38-5.58-4.38h-4.04v8.76h4.04c3.29,0,5.58-1.48,5.58-4.38Z"/><path class="cls-1" d="M231.55,69.55v1.88h-12.46v-12.51h12.28v1.88h-10.15v3.34h8.54v1.88h-8.54v3.54h10.33Z"/><path class="cls-1" d="M245.65,71.43l-3.88-4.54h-5.27v4.54h-2.15v-12.51h8.51c2.91,0,5.06,1.39,5.06,3.99,0,2.16-1.5,3.49-3.68,3.88l4.06,4.65h-2.65Zm-2.93-6.38c1.79,0,3-.57,3-2.13s-1.22-2.13-3-2.13h-6.24v4.25h6.24Z"/><path class="cls-1" d="M249.96,65.17c0-4.13,2.97-6.63,7.78-6.63s7.78,2.5,7.78,6.63-2.97,6.63-7.78,6.63-7.78-2.5-7.78-6.63Zm13.35,0c0-3.04-2.18-4.74-5.58-4.74s-5.59,1.7-5.59,4.74,2.18,4.74,5.59,4.74,5.58-1.7,5.58-4.74Z"/><path class="cls-1" d="M287.53,58.92v12.51h-1.89l-9.78-9.87v9.87h-2.07v-12.51h2.29l9.37,9.49v-9.49h2.09Z"/><path class="cls-1" d="M301.5,68.41h-8.03l-1.59,3.02h-2.32l6.77-12.51h2.36l6.76,12.51h-2.34l-1.61-3.02Zm-.95-1.82l-3.06-5.79-3.06,5.79h6.11Z"/><path class="cls-1" d="M306.47,58.92l4.77,6.35,4.74-6.35h2.47l-6.15,8.19v4.33h-2.14v-4.33l-6.17-8.19h2.48Z"/><path class="cls-1" d="M328.92,68.41h-8.03l-1.59,3.02h-2.32l6.77-12.51h2.36l6.76,12.51h-2.34l-1.61-3.02Zm-.95-1.82l-3.06-5.79-3.06,5.79h6.11Z"/><path class="cls-1" d="M346.23,71.43l-3.88-4.54h-5.27v4.54h-2.15v-12.51h8.51c2.91,0,5.06,1.39,5.06,3.99,0,2.16-1.5,3.49-3.68,3.88l4.06,4.65h-2.65Zm-2.93-6.38c1.79,0,3-.57,3-2.13s-1.22-2.13-3-2.13h-6.24v4.25h6.24Z"/><path class="cls-1" d="M351.52,71.43v-12.51h2.15v12.51h-2.15Z"/><path class="cls-1" d="M369.41,60.79h-5.7v10.64h-2.15v-10.64h-5.67v-1.88h13.51v1.88Z"/><path class="cls-1" d="M379.85,68.41h-8.03l-1.59,3.02h-2.32l6.77-12.51h2.36l6.76,12.51h-2.34l-1.61-3.02Zm-.95-1.82l-3.06-5.79-3.06,5.79h6.11Z"/></g></g></g></svg>