<?xml version="1.0" encoding="UTF-8"?><svg id="Capa_2" xmlns="http://www.w3.org/2000/svg" viewBox="0 0 374.78 158.83"><defs><style>.cls-1{fill:#fff;}</style></defs><g id="Capa_1-2"><g><polygon class="cls-1" points="147.09 7.95 140.6 .24 134.21 .24 134.21 78.78 139.93 78.78 139.93 8.55 147.09 17.04 147.09 7.95"/><polygon class="cls-1" points="224.75 .24 182.67 50.95 157.19 20.34 157.19 29.38 182.34 59.48 182.79 59.48 225.08 8.55 225.08 78.78 230.92 78.78 230.92 .24 224.75 .24"/><g><path class="cls-1" d="M45.29,103.71v36.78h-2.73v-32.89l-19.81,23.85h-.21L2.68,107.6v32.89H0v-36.78H2.99l19.7,23.75,19.7-23.75h2.89Z"/><path class="cls-1" d="M143.91,122.1c0,11.24-8.51,18.39-21.8,18.39h-17.13v-36.78h17.13c13.29,0,21.8,7.15,21.8,18.39Zm-2.78,0c0-10.3-8.04-15.87-19.18-15.87h-14.24v31.68h14.24c11.14,0,19.18-5.52,19.18-15.81Z"/><path class="cls-1" d="M188.84,137.92v2.57h-34.62v-36.78h34.1v2.52h-31.37v14.24h26.9v2.57h-26.9v14.87h31.89Z"/><path class="cls-1" d="M234.07,140.49l-12.87-14.76h-19.7v14.76h-2.78v-36.78h24.12c8.2,0,13.66,4.1,13.66,10.98,0,6.46-4.73,10.46-11.93,10.98l13.08,14.82h-3.57Zm-11.4-17.29c6.78,0,11.03-2.99,11.03-8.51s-4.26-8.46-11.03-8.46h-21.23v16.97h21.23Z"/><path class="cls-1" d="M285.04,103.71v36.78h-2.42l-32.84-33.31v33.31h-2.68v-36.78h3.05l32.21,32.73v-32.73h2.68Z"/><path class="cls-1" d="M337.79,103.71l16.87,21.23,16.81-21.23h3.31l-18.81,23.75v13.03h-2.73v-13.03l-18.81-23.75h3.36Z"/><polygon class="cls-1" points="316.41 103.71 313.36 103.71 292.76 140.49 295.81 140.49 300.48 132.09 303.23 127.09 303.22 127.09 304.27 125.21 304.27 125.21 304.27 125.21 314.83 106.23 325.08 124.57 325.08 124.57 325.08 124.57 326.49 127.09 326.48 127.09 328.97 131.6 329.55 132.62 333.95 140.49 337 140.49 316.41 103.71"/><polygon class="cls-1" points="76.63 103.71 73.58 103.71 52.99 140.49 56.04 140.49 60.7 132.09 63.46 127.09 63.44 127.09 64.5 125.21 64.5 125.21 64.5 125.21 75.06 106.23 85.31 124.57 85.31 124.57 85.31 124.57 86.72 127.09 86.71 127.09 89.2 131.6 89.77 132.62 94.18 140.49 97.23 140.49 76.63 103.71"/></g><path class="cls-1" d="M213.9,26.07c1.73,4.19,2.64,8.76,2.64,13.52,0,9.54-3.64,18.35-10.25,24.79-6.55,6.39-15.45,9.91-25.05,9.91h-26.48V4.77h26.13c9.67,0,18.64,3.52,25.26,9.92,.61,.58,1.19,1.19,1.74,1.81l3.35-4.04c-.36-.38-.73-.76-1.11-1.13-7.52-7.3-17.82-11.33-29-11.33h-31.49V78.94h31.13c11.29,0,21.69-4.03,29.28-11.33,7.57-7.29,11.74-17.28,11.74-28.13,0-6.39-1.44-12.48-4.15-17.9l-3.73,4.5Z"/><g><path class="cls-1" d="M89.47,156.22h-6.16l-1.22,2.32h-1.78l5.2-9.6h1.81l5.19,9.6h-1.8l-1.23-2.32Zm-.73-1.4l-2.35-4.44-2.35,4.44h4.69Z"/><path class="cls-1" d="M103.65,155.7c0,1.82-1.8,3.13-5.06,3.13-2.25,0-4.24-.66-5.73-1.95l1.03-1.17c1.3,1.17,2.84,1.69,4.77,1.69,2.14,0,3.32-.56,3.32-1.56s-1.21-1.25-3.62-1.45c-2.65-.22-5.14-.81-5.14-2.77s2.21-2.96,4.97-2.96c2.09,0,3.86,.62,5.01,1.59l-1.04,1.12c-.99-.86-2.35-1.28-3.94-1.29-1.52-.01-3.33,.36-3.33,1.43,0,1.02,1.61,1.19,3.7,1.36,2.99,.23,5.08,.84,5.08,2.84Z"/><path class="cls-1" d="M115.24,157.1v1.44h-9.56v-9.6h9.43v1.44h-7.79v2.57h6.56v1.44h-6.56v2.72h7.93Z"/><path class="cls-1" d="M126.06,158.54l-2.98-3.48h-4.05v3.48h-1.65v-9.6h6.53c2.24,0,3.88,1.07,3.88,3.06,0,1.66-1.15,2.68-2.83,2.98l3.11,3.57h-2.03Zm-2.25-4.9c1.37,0,2.3-.44,2.3-1.63s-.93-1.63-2.3-1.63h-4.79v3.27h4.79Z"/><path class="cls-1" d="M138.8,158.54l-2.98-3.48h-4.05v3.48h-1.65v-9.6h6.53c2.24,0,3.88,1.07,3.88,3.06,0,1.66-1.15,2.68-2.83,2.98l3.11,3.57h-2.03Zm-2.25-4.9c1.37,0,2.3-.44,2.3-1.63s-.93-1.63-2.3-1.63h-4.79v3.27h4.79Z"/><path class="cls-1" d="M150.61,156.22h-6.16l-1.22,2.32h-1.78l5.2-9.6h1.81l5.19,9.6h-1.8l-1.23-2.32Zm-.73-1.4l-2.35-4.44-2.35,4.44h4.69Z"/><path class="cls-1" d="M165.93,153.74c0,2.96-2.28,4.8-5.84,4.8h-4.87v-9.6h4.87c3.57,0,5.84,1.84,5.84,4.8Zm-1.69,0c0-2.22-1.76-3.36-4.28-3.36h-3.1v6.72h3.1c2.52,0,4.28-1.14,4.28-3.36Z"/><path class="cls-1" d="M177.73,157.1v1.44h-9.56v-9.6h9.43v1.44h-7.79v2.57h6.56v1.44h-6.56v2.72h7.93Z"/><path class="cls-1" d="M188.56,158.54l-2.98-3.48h-4.05v3.48h-1.65v-9.6h6.53c2.24,0,3.88,1.07,3.88,3.06,0,1.66-1.15,2.68-2.83,2.98l3.11,3.57h-2.03Zm-2.25-4.9c1.37,0,2.3-.44,2.3-1.63s-.93-1.63-2.3-1.63h-4.79v3.27h4.79Z"/><path class="cls-1" d="M191.86,153.74c0-3.17,2.28-5.09,5.97-5.09s5.97,1.92,5.97,5.09-2.28,5.09-5.97,5.09-5.97-1.92-5.97-5.09Zm10.25,0c0-2.33-1.67-3.64-4.28-3.64s-4.29,1.3-4.29,3.64,1.67,3.64,4.29,3.64,4.28-1.3,4.28-3.64Z"/><path class="cls-1" d="M220.7,148.94v9.6h-1.45l-7.5-7.57v7.57h-1.59v-9.6h1.76l7.19,7.29v-7.29h1.61Z"/><path class="cls-1" d="M231.43,156.22h-6.16l-1.22,2.32h-1.78l5.2-9.6h1.81l5.19,9.6h-1.8l-1.24-2.32Zm-.73-1.4l-2.35-4.44-2.35,4.44h4.69Z"/><path class="cls-1" d="M235.24,148.94l3.66,4.87,3.64-4.87h1.89l-4.72,6.28v3.32h-1.65v-3.32l-4.73-6.28h1.91Z"/><path class="cls-1" d="M252.48,156.22h-6.16l-1.22,2.32h-1.78l5.2-9.6h1.81l5.19,9.6h-1.8l-1.24-2.32Zm-.73-1.4l-2.35-4.44-2.35,4.44h4.69Z"/><path class="cls-1" d="M265.76,158.54l-2.98-3.48h-4.05v3.48h-1.65v-9.6h6.53c2.24,0,3.88,1.07,3.88,3.06,0,1.66-1.15,2.68-2.83,2.98l3.11,3.57h-2.03Zm-2.25-4.9c1.37,0,2.3-.44,2.3-1.63s-.93-1.63-2.3-1.63h-4.79v3.27h4.79Z"/><path class="cls-1" d="M269.82,158.54v-9.6h1.65v9.6h-1.65Z"/><path class="cls-1" d="M283.55,150.38h-4.38v8.16h-1.65v-8.16h-4.35v-1.44h10.37v1.44Z"/><path class="cls-1" d="M291.56,156.22h-6.16l-1.22,2.32h-1.78l5.2-9.6h1.81l5.19,9.6h-1.8l-1.24-2.32Zm-.73-1.4l-2.35-4.44-2.35,4.44h4.69Z"/></g></g></g></svg>